<svg width="60" height="60" viewBox="0 0 60 60" fill="none" xmlns="http://www.w3.org/2000/svg">
<rect width="60" height="60" fill="white"/>
<path d="M30.738 49.4211C32.4958 49.4211 34.0583 49.0305 35.4255 48.2493C36.8049 47.468 37.8914 46.406 38.6848 45.0632C39.4905 43.7083 39.8933 42.1763 39.8933 40.4673V40.4307C39.8933 38.7583 39.5088 37.269 38.7397 35.9629C37.9829 34.6445 36.9453 33.6069 35.627 32.8501C34.3086 32.0811 32.8071 31.6965 31.1226 31.6965C29.8652 31.6965 28.7117 31.9224 27.6619 32.374C26.6121 32.8135 25.7148 33.4116 24.9702 34.1685C24.2378 34.9131 23.7007 35.7493 23.3589 36.677H23.011V40.3025H23.9998V40.2842C23.9998 39.0879 24.2988 38.0076 24.897 37.0432C25.4951 36.0789 26.3069 35.3159 27.3323 34.7544C28.3577 34.1929 29.4929 33.9121 30.738 33.9121C32.0076 33.9121 33.1428 34.199 34.1438 34.7727C35.1448 35.3342 35.9321 36.1094 36.5059 37.0981C37.0796 38.0869 37.3665 39.21 37.3665 40.4673V40.5039C37.3665 41.7612 37.0674 42.8965 36.4692 43.9097C35.8833 44.9106 35.0837 45.7102 34.0706 46.3083C33.0696 46.8943 31.9526 47.1873 30.7197 47.1873C29.438 47.1873 28.2905 46.8821 27.2773 46.2717C26.2642 45.6492 25.4646 44.8191 24.8787 43.7815C24.2927 42.7317 23.9998 41.572 23.9998 40.3025L23.2856 36.7869C23.2856 36.6404 23.2856 36.4939 23.2856 36.3474C23.2856 36.2009 23.2917 36.0544 23.304 35.908C23.3406 33.8083 23.6213 31.8857 24.1462 30.1401C24.6833 28.3945 25.5073 26.9968 26.6182 25.947C27.729 24.8972 29.1511 24.3723 30.8845 24.3723C31.8977 24.3723 32.8071 24.5493 33.6128 24.9033C34.4307 25.2451 35.1143 25.7273 35.6636 26.3499C36.2129 26.9724 36.6096 27.6987 36.8538 28.5288L36.9087 28.7302H39.4355L39.3806 28.4922C39.1243 27.2593 38.6055 26.1667 37.8242 25.2146C37.0552 24.2502 36.0786 23.4995 34.8945 22.9624C33.7227 22.4253 32.3982 22.1567 30.9211 22.1567C28.8337 22.1567 27.0393 22.7244 25.5378 23.8596C24.0364 24.9949 22.8828 26.6367 22.0771 28.7852C21.2837 30.9214 20.887 33.491 20.887 36.4939V36.5305C20.887 38.8376 21.1555 40.803 21.6926 42.4265C22.2297 44.05 22.9622 45.3806 23.8899 46.4182C24.8176 47.4436 25.8674 48.2004 27.0393 48.6887C28.2234 49.177 29.4563 49.4211 30.738 49.4211Z" fill="#262626"/>
<path d="M17.321 15.333H18.8315V9.81885H19.6682L18.0566 7.45483L21.0215 15.333H22.0828L25.0532 7.45483L23.436 9.81885H24.2727V15.333H25.7832V7.23022H23.8403L21.6055 13.1599H21.5044L19.2639 7.23022H17.321V15.333ZM31.2974 15.5408C32.0947 15.5408 32.7854 15.3686 33.3694 15.0242C33.9534 14.676 34.4026 14.1838 34.717 13.5474C35.0352 12.911 35.1943 12.1567 35.1943 11.2844V11.2732C35.1943 10.401 35.0352 9.64665 34.717 9.01025C34.3988 8.37386 33.9478 7.88346 33.3638 7.53906C32.7835 7.19466 32.0947 7.02246 31.2974 7.02246C30.5037 7.02246 29.8149 7.19466 29.231 7.53906C28.647 7.88346 28.194 8.37386 27.8721 9.01025C27.5539 9.6429 27.3948 10.3972 27.3948 11.2732V11.2844C27.3948 12.1567 27.552 12.911 27.8665 13.5474C28.1847 14.1838 28.6357 14.676 29.2197 15.0242C29.8037 15.3686 30.4963 15.5408 31.2974 15.5408ZM31.2974 14.1033C30.8519 14.1033 30.4663 13.9872 30.1406 13.7551C29.8187 13.523 29.5679 13.1955 29.3882 12.7725C29.2122 12.3494 29.1243 11.8534 29.1243 11.2844V11.2732C29.1243 10.7004 29.2141 10.2044 29.3938 9.78516C29.5735 9.36214 29.8262 9.03646 30.1519 8.80811C30.4775 8.57601 30.8594 8.45996 31.2974 8.45996C31.7354 8.45996 32.1172 8.57601 32.4429 8.80811C32.7686 9.03646 33.0194 9.36214 33.1953 9.78516C33.375 10.2044 33.4648 10.7004 33.4648 11.2732V11.2844C33.4648 11.8534 33.375 12.3494 33.1953 12.7725C33.0194 13.1955 32.7686 13.523 32.4429 13.7551C32.1172 13.9872 31.7354 14.1033 31.2974 14.1033ZM36.8059 15.333H38.4287V10.1501H39.2766L38.0862 9.54932L42.2695 15.333H43.6733V7.23022H42.0505V12.3906H41.2083L42.3931 12.9915L38.2209 7.23022H36.8059V15.333Z" fill="#FF3A2F"/>
</svg>
